<mxfile host="app.diagrams.net" modified="2023-01-24T12:19:39.364Z" agent="5.0 (Macintosh; Intel Mac OS X 10_15_7) AppleWebKit/537.36 (KHTML, like Gecko) Chrome/109.0.0.0 Safari/537.36" etag="5EwZlDLatVtncT3MPwVw" version="20.8.10" type="github">
  <diagram name="Page-1" id="W9XwexpaYzlibdtbrjxb">
    <mxGraphModel dx="954" dy="616" grid="1" gridSize="10" guides="1" tooltips="1" connect="1" arrows="1" fold="1" page="1" pageScale="1" pageWidth="850" pageHeight="1100" math="0" shadow="0">
      <root>
        <mxCell id="0" />
        <mxCell id="1" parent="0" />
        <mxCell id="UWMZK39gOIPI3kCk6DIv-12" style="edgeStyle=orthogonalEdgeStyle;rounded=0;orthogonalLoop=1;jettySize=auto;html=1;exitX=0.5;exitY=1;exitDx=0;exitDy=0;entryX=0.5;entryY=0;entryDx=0;entryDy=0;" edge="1" parent="1" source="UWMZK39gOIPI3kCk6DIv-3" target="UWMZK39gOIPI3kCk6DIv-6">
          <mxGeometry relative="1" as="geometry" />
        </mxCell>
        <mxCell id="UWMZK39gOIPI3kCk6DIv-3" value="Start" style="ellipse;whiteSpace=wrap;html=1;" vertex="1" parent="1">
          <mxGeometry x="320" y="60" width="120" height="80" as="geometry" />
        </mxCell>
        <mxCell id="UWMZK39gOIPI3kCk6DIv-5" value="End" style="ellipse;whiteSpace=wrap;html=1;" vertex="1" parent="1">
          <mxGeometry x="320" y="700" width="120" height="80" as="geometry" />
        </mxCell>
        <mxCell id="UWMZK39gOIPI3kCk6DIv-13" style="edgeStyle=orthogonalEdgeStyle;rounded=0;orthogonalLoop=1;jettySize=auto;html=1;exitX=0.5;exitY=1;exitDx=0;exitDy=0;entryX=0.5;entryY=0;entryDx=0;entryDy=0;" edge="1" parent="1" source="UWMZK39gOIPI3kCk6DIv-6" target="UWMZK39gOIPI3kCk6DIv-7">
          <mxGeometry relative="1" as="geometry" />
        </mxCell>
        <mxCell id="UWMZK39gOIPI3kCk6DIv-6" value="firstnum = 0&lt;br&gt;secondnum = 0&lt;br&gt;sum = 0&lt;br&gt;ave = 0" style="shape=hexagon;perimeter=hexagonPerimeter2;whiteSpace=wrap;html=1;fixedSize=1;" vertex="1" parent="1">
          <mxGeometry x="320" y="170" width="120" height="80" as="geometry" />
        </mxCell>
        <mxCell id="UWMZK39gOIPI3kCk6DIv-14" style="edgeStyle=orthogonalEdgeStyle;rounded=0;orthogonalLoop=1;jettySize=auto;html=1;exitX=0.5;exitY=1;exitDx=0;exitDy=0;entryX=0.5;entryY=0;entryDx=0;entryDy=0;" edge="1" parent="1" source="UWMZK39gOIPI3kCk6DIv-7" target="UWMZK39gOIPI3kCk6DIv-9">
          <mxGeometry relative="1" as="geometry" />
        </mxCell>
        <mxCell id="UWMZK39gOIPI3kCk6DIv-7" value="INPUT&lt;br&gt;get firstnum()&lt;br&gt;get secondnum()" style="shape=parallelogram;perimeter=parallelogramPerimeter;whiteSpace=wrap;html=1;fixedSize=1;size=10;" vertex="1" parent="1">
          <mxGeometry x="290" y="280" width="170" height="60" as="geometry" />
        </mxCell>
        <mxCell id="UWMZK39gOIPI3kCk6DIv-15" style="edgeStyle=orthogonalEdgeStyle;rounded=0;orthogonalLoop=1;jettySize=auto;html=1;exitX=0.5;exitY=1;exitDx=0;exitDy=0;entryX=0.5;entryY=0;entryDx=0;entryDy=0;startArrow=none;" edge="1" parent="1" source="UWMZK39gOIPI3kCk6DIv-17" target="UWMZK39gOIPI3kCk6DIv-10">
          <mxGeometry relative="1" as="geometry" />
        </mxCell>
        <mxCell id="UWMZK39gOIPI3kCk6DIv-9" value="sum = firstnum + secondnum" style="rounded=0;whiteSpace=wrap;html=1;" vertex="1" parent="1">
          <mxGeometry x="315" y="380" width="120" height="60" as="geometry" />
        </mxCell>
        <mxCell id="UWMZK39gOIPI3kCk6DIv-16" style="edgeStyle=orthogonalEdgeStyle;rounded=0;orthogonalLoop=1;jettySize=auto;html=1;exitX=0.5;exitY=1;exitDx=0;exitDy=0;entryX=0.5;entryY=0;entryDx=0;entryDy=0;" edge="1" parent="1" source="UWMZK39gOIPI3kCk6DIv-10" target="UWMZK39gOIPI3kCk6DIv-5">
          <mxGeometry relative="1" as="geometry" />
        </mxCell>
        <mxCell id="UWMZK39gOIPI3kCk6DIv-10" value="" style="shape=parallelogram;perimeter=parallelogramPerimeter;whiteSpace=wrap;html=1;fixedSize=1;" vertex="1" parent="1">
          <mxGeometry x="320" y="600" width="120" height="60" as="geometry" />
        </mxCell>
        <mxCell id="UWMZK39gOIPI3kCk6DIv-18" value="" style="edgeStyle=orthogonalEdgeStyle;rounded=0;orthogonalLoop=1;jettySize=auto;html=1;exitX=0.5;exitY=1;exitDx=0;exitDy=0;entryX=0.5;entryY=0;entryDx=0;entryDy=0;endArrow=none;" edge="1" parent="1" source="UWMZK39gOIPI3kCk6DIv-9" target="UWMZK39gOIPI3kCk6DIv-17">
          <mxGeometry relative="1" as="geometry">
            <mxPoint x="380" y="410" as="sourcePoint" />
            <mxPoint x="380" y="520" as="targetPoint" />
          </mxGeometry>
        </mxCell>
        <mxCell id="UWMZK39gOIPI3kCk6DIv-17" value="" style="rounded=0;whiteSpace=wrap;html=1;" vertex="1" parent="1">
          <mxGeometry x="320" y="470" width="120" height="60" as="geometry" />
        </mxCell>
        <mxCell id="UWMZK39gOIPI3kCk6DIv-19" value="Flowchart 1: Averaging 2 numbers" style="text;html=1;align=center;verticalAlign=middle;resizable=0;points=[];autosize=1;strokeColor=none;fillColor=none;" vertex="1" parent="1">
          <mxGeometry x="15" y="45" width="210" height="30" as="geometry" />
        </mxCell>
      </root>
    </mxGraphModel>
  </diagram>
</mxfile>
